<svg width="1216.504" height="77.393" viewBox="0 0 1216.504 77.393" xmlns="http://www.w3.org/2000/svg"><g id="svgGroup" stroke-linecap="round" fill-rule="evenodd" font-size="9pt" stroke="#000" stroke-width="0.25mm" fill="none" style="stroke:#000;stroke-width:0.25mm;fill:none"><path d="M 1004.346 75.977 L 994.043 75.977 L 973.34 16.357 L 972.949 16.357 A 432.133 432.133 0 0 1 973.663 32.31 A 352.287 352.287 0 0 1 973.779 41.26 L 973.779 75.977 L 963.184 75.977 L 963.184 4.59 L 979.639 4.59 L 999.463 61.377 L 999.756 61.377 L 1020.166 4.59 L 1036.67 4.59 L 1036.67 75.977 L 1025.439 75.977 L 1025.439 40.674 A 262.261 262.261 0 0 1 1025.456 37.811 Q 1025.5 33.862 1025.654 28.573 A 823.06 823.06 0 0 1 1025.708 26.807 A 837.222 837.222 0 0 1 1025.806 23.839 Q 1025.997 18.392 1026.146 16.716 A 14.158 14.158 0 0 1 1026.172 16.455 L 1025.781 16.455 L 1004.346 75.977 Z M 885.889 47.363 L 885.889 75.977 L 874.365 75.977 L 874.365 42.676 A 26.393 26.393 0 0 0 874.18 39.437 Q 873.706 35.616 872.021 33.423 Q 869.787 30.514 865.158 30.378 A 15.664 15.664 0 0 0 864.697 30.371 A 16.058 16.058 0 0 0 860.903 30.79 A 9.933 9.933 0 0 0 854.956 34.692 Q 851.855 39.014 851.855 49.072 L 851.855 75.977 L 840.381 75.977 L 840.381 21.973 L 849.365 21.973 L 850.977 29.053 L 851.563 29.053 A 14.849 14.849 0 0 1 857.62 23.331 A 18.018 18.018 0 0 1 858.081 23.096 A 20.721 20.721 0 0 1 866.369 21.021 A 24.382 24.382 0 0 1 867.48 20.996 A 28.032 28.032 0 0 1 873.463 21.587 Q 881 23.236 883.984 29.492 L 884.766 29.492 Q 887.158 25.488 891.504 23.242 A 20.013 20.013 0 0 1 898.079 21.215 A 25.385 25.385 0 0 1 901.465 20.996 Q 907.481 20.996 911.465 22.887 A 12.892 12.892 0 0 1 915.552 25.879 A 15.127 15.127 0 0 1 918.553 31.077 Q 919.971 35.102 919.971 40.771 L 919.971 75.977 L 908.496 75.977 L 908.496 42.676 A 26.124 26.124 0 0 0 908.309 39.437 Q 907.83 35.616 906.128 33.423 A 7.522 7.522 0 0 0 902.022 30.765 Q 900.569 30.371 898.779 30.371 Q 893.834 30.371 890.85 32.653 A 9.494 9.494 0 0 0 888.989 34.546 Q 886.012 38.554 885.894 46.68 A 46.709 46.709 0 0 0 885.889 47.363 Z M 608.887 4.59 L 608.887 75.977 L 597.168 75.977 L 597.168 43.799 L 564.258 43.799 L 564.258 75.977 L 552.588 75.977 L 552.588 4.59 L 564.258 4.59 L 564.258 33.789 L 597.168 33.789 L 597.168 4.59 L 608.887 4.59 Z M 435.156 4.59 L 446.826 4.59 L 446.826 50.781 A 31.148 31.148 0 0 1 446.004 58.089 A 24.757 24.757 0 0 1 443.433 64.624 A 22.612 22.612 0 0 1 433.618 73.755 A 29.397 29.397 0 0 1 425.843 76.296 Q 422.531 76.912 418.766 76.951 A 49.336 49.336 0 0 1 418.262 76.953 A 40.354 40.354 0 0 1 410.005 76.16 Q 402.504 74.591 397.607 69.922 A 23.19 23.19 0 0 1 390.885 57.432 A 34.23 34.23 0 0 1 390.234 50.586 L 390.234 4.59 L 401.953 4.59 L 401.953 49.756 A 30.207 30.207 0 0 0 402.305 54.536 Q 403.155 59.824 406.055 62.793 A 12.682 12.682 0 0 0 411.059 65.876 Q 413.067 66.574 415.531 66.835 A 29.59 29.59 0 0 0 418.652 66.992 Q 431.815 66.992 434.48 55.966 A 26.921 26.921 0 0 0 435.156 49.658 L 435.156 4.59 Z M 1178.809 47.461 L 1179.102 47.461 L 1185.596 39.355 L 1201.904 21.973 L 1215.137 21.973 L 1193.408 45.166 L 1216.504 75.977 L 1203.027 75.977 L 1185.693 52.295 L 1179.395 57.471 L 1179.395 75.977 L 1168.018 75.977 L 1168.018 0 L 1179.395 0 L 1179.395 37.061 L 1178.809 47.461 Z M 186.475 73.193 L 186.475 62.158 Q 191.357 64.453 196.851 65.771 A 50.315 50.315 0 0 0 202.155 66.76 A 38.554 38.554 0 0 0 207.08 67.09 Q 213.744 67.09 217.048 64.654 A 8.368 8.368 0 0 0 217.31 64.453 A 8.453 8.453 0 0 0 220.566 58.323 A 11.232 11.232 0 0 0 220.605 57.373 A 8.821 8.821 0 0 0 217.867 50.861 A 11.196 11.196 0 0 0 217.578 50.586 Q 214.551 47.803 205.078 43.994 Q 195.313 40.039 191.309 34.961 A 18.609 18.609 0 0 1 187.388 24.772 A 23.905 23.905 0 0 1 187.305 22.754 A 20.18 20.18 0 0 1 188.264 16.383 A 16.324 16.324 0 0 1 193.652 8.691 Q 199.457 4.003 208.895 3.602 A 42.349 42.349 0 0 1 210.693 3.564 A 49.185 49.185 0 0 1 228.404 6.943 A 57.706 57.706 0 0 1 231.104 8.057 L 227.393 17.578 Q 217.871 13.574 210.4 13.574 A 20.794 20.794 0 0 0 207.165 13.809 Q 203.832 14.335 201.807 16.04 A 7.983 7.983 0 0 0 198.899 21.874 A 10.674 10.674 0 0 0 198.877 22.559 A 11.043 11.043 0 0 0 199.101 24.84 A 8.107 8.107 0 0 0 200.049 27.319 A 9.018 9.018 0 0 0 201.36 29.004 Q 202.393 30.064 203.906 31.055 Q 206.57 32.798 213.461 35.647 A 187.875 187.875 0 0 0 213.574 35.693 Q 220.387 38.529 224.046 41.034 A 22.47 22.47 0 0 1 225.098 41.797 A 20.498 20.498 0 0 1 228.25 44.787 A 16.04 16.04 0 0 1 230.469 48.193 A 16.87 16.87 0 0 1 231.851 52.605 A 23.157 23.157 0 0 1 232.178 56.592 Q 232.178 66.113 225.293 71.533 A 23.356 23.356 0 0 1 217.398 75.512 Q 214.06 76.503 210.066 76.812 A 48.767 48.767 0 0 1 206.299 76.953 Q 197.22 76.953 190.611 74.84 A 30.947 30.947 0 0 1 186.475 73.193 Z M 331.348 73.193 L 331.348 62.158 Q 336.23 64.453 341.724 65.771 A 50.315 50.315 0 0 0 347.028 66.76 A 38.554 38.554 0 0 0 351.953 67.09 Q 358.617 67.09 361.921 64.654 A 8.368 8.368 0 0 0 362.183 64.453 A 8.453 8.453 0 0 0 365.439 58.323 A 11.232 11.232 0 0 0 365.479 57.373 A 8.821 8.821 0 0 0 362.74 50.861 A 11.196 11.196 0 0 0 362.451 50.586 Q 359.424 47.803 349.951 43.994 Q 340.186 40.039 336.182 34.961 A 18.609 18.609 0 0 1 332.261 24.772 A 23.905 23.905 0 0 1 332.178 22.754 A 20.18 20.18 0 0 1 333.137 16.383 A 16.324 16.324 0 0 1 338.525 8.691 Q 344.33 4.003 353.768 3.602 A 42.349 42.349 0 0 1 355.566 3.564 A 49.185 49.185 0 0 1 373.277 6.943 A 57.706 57.706 0 0 1 375.977 8.057 L 372.266 17.578 Q 362.744 13.574 355.273 13.574 A 20.794 20.794 0 0 0 352.038 13.809 Q 348.705 14.335 346.68 16.04 A 7.983 7.983 0 0 0 343.772 21.874 A 10.674 10.674 0 0 0 343.75 22.559 A 11.043 11.043 0 0 0 343.974 24.84 A 8.107 8.107 0 0 0 344.922 27.319 A 9.018 9.018 0 0 0 346.233 29.004 Q 347.266 30.064 348.779 31.055 Q 351.443 32.798 358.334 35.647 A 187.875 187.875 0 0 0 358.447 35.693 Q 365.26 38.529 368.919 41.034 A 22.47 22.47 0 0 1 369.971 41.797 A 20.498 20.498 0 0 1 373.124 44.787 A 16.04 16.04 0 0 1 375.342 48.193 A 16.87 16.87 0 0 1 376.724 52.605 A 23.157 23.157 0 0 1 377.051 56.592 Q 377.051 66.113 370.166 71.533 A 23.356 23.356 0 0 1 362.271 75.512 Q 358.933 76.503 354.939 76.812 A 48.767 48.767 0 0 1 351.172 76.953 Q 342.093 76.953 335.484 74.84 A 30.947 30.947 0 0 1 331.348 73.193 Z M 295.166 47.461 L 283.643 47.461 L 283.643 75.977 L 271.973 75.977 L 271.973 4.59 L 292.139 4.59 A 59.025 59.025 0 0 1 299.344 4.999 Q 307.333 5.985 312.032 9.344 A 17.011 17.011 0 0 1 312.598 9.766 A 16.594 16.594 0 0 1 318.59 19.375 A 26.204 26.204 0 0 1 319.238 25.391 A 19.62 19.62 0 0 1 317.122 34.635 Q 313.821 40.933 305.371 44.385 L 325.537 75.977 L 312.256 75.977 L 295.166 47.461 Z M 175.635 63.77 L 175.635 73.779 A 48.306 48.306 0 0 1 164.87 76.429 A 63.026 63.026 0 0 1 156.592 76.953 A 41.389 41.389 0 0 1 146.882 75.881 A 27.123 27.123 0 0 1 132.52 67.456 A 30.905 30.905 0 0 1 126.254 56.02 Q 124.121 49.19 124.121 40.283 A 51.44 51.44 0 0 1 125.017 30.458 A 38.765 38.765 0 0 1 128.198 20.801 A 29.1 29.1 0 0 1 139.99 8.008 A 32.975 32.975 0 0 1 151.569 4.043 A 43.149 43.149 0 0 1 158.105 3.564 A 45.473 45.473 0 0 1 175.381 6.832 A 43.737 43.737 0 0 1 178.32 8.154 L 174.121 17.871 A 62.525 62.525 0 0 0 166.731 14.949 A 68.394 68.394 0 0 0 166.479 14.868 A 27.532 27.532 0 0 0 158.008 13.574 A 22.773 22.773 0 0 0 150.871 14.64 A 18.342 18.342 0 0 0 142.188 20.703 A 24.092 24.092 0 0 0 137.866 29.187 Q 136.426 34.106 136.426 40.381 A 49.763 49.763 0 0 0 136.94 47.791 Q 137.518 51.619 138.745 54.698 A 20.783 20.783 0 0 0 141.968 60.254 A 17.947 17.947 0 0 0 152.709 66.503 A 27.243 27.243 0 0 0 158.008 66.992 A 42.146 42.146 0 0 0 166.797 66.089 A 97.766 97.766 0 0 0 173.08 64.525 A 113.691 113.691 0 0 0 175.635 63.77 Z M 118.213 75.977 L 105.811 75.977 L 98.682 56.152 L 71.387 56.152 L 64.404 75.977 L 52.1 75.977 L 78.809 4.297 L 91.504 4.297 L 118.213 75.977 Z M 711.865 75.977 L 699.463 75.977 L 692.334 56.152 L 665.039 56.152 L 658.057 75.977 L 645.752 75.977 L 672.461 4.297 L 685.156 4.297 L 711.865 75.977 Z M 754.688 28.857 L 755.273 28.857 Q 754.589 24.068 754.469 20.938 A 32.909 32.909 0 0 1 754.443 19.678 L 754.443 0 L 765.967 0 L 765.967 75.977 L 756.982 75.977 L 754.98 68.896 L 754.443 68.896 A 17.751 17.751 0 0 1 741.482 76.756 A 25.23 25.23 0 0 1 738.281 76.953 A 22.378 22.378 0 0 1 731.326 75.923 A 17.996 17.996 0 0 1 722.51 69.629 A 24.585 24.585 0 0 1 718.54 61.778 Q 717.481 58.36 717.084 54.251 A 53.892 53.892 0 0 1 716.846 49.072 A 49.514 49.514 0 0 1 717.46 41.012 Q 718.17 36.714 719.702 33.259 A 23.326 23.326 0 0 1 722.583 28.394 A 18.536 18.536 0 0 1 736.157 21.098 A 25.892 25.892 0 0 1 738.477 20.996 A 22.852 22.852 0 0 1 745.454 22.006 A 17.672 17.672 0 0 1 754.688 28.857 Z M 824.365 75.977 L 816.162 75.977 L 813.867 68.457 L 813.477 68.457 A 32.445 32.445 0 0 1 810.785 71.475 Q 809.337 72.896 807.882 73.888 A 14.906 14.906 0 0 1 805.615 75.171 A 18.039 18.039 0 0 1 802.031 76.325 Q 800.225 76.718 798.109 76.865 A 38.2 38.2 0 0 1 795.459 76.953 A 23.699 23.699 0 0 1 790.401 76.446 Q 785.964 75.476 783.032 72.656 Q 778.722 68.51 778.57 61.046 A 27.013 27.013 0 0 1 778.564 60.498 A 17.839 17.839 0 0 1 779.297 55.242 A 13.506 13.506 0 0 1 784.766 47.9 A 21.188 21.188 0 0 1 789.928 45.39 Q 794.973 43.671 802.314 43.315 A 76.389 76.389 0 0 1 803.662 43.262 L 812.988 42.969 L 812.988 40.088 A 17.701 17.701 0 0 0 812.775 37.245 Q 812.271 34.151 810.571 32.349 Q 808.615 30.273 804.914 29.878 A 17.323 17.323 0 0 0 803.076 29.785 A 25.916 25.916 0 0 0 795.117 31.006 A 60.062 60.062 0 0 0 787.793 33.887 L 784.082 25.684 A 39.186 39.186 0 0 1 792.089 22.593 A 44.645 44.645 0 0 1 793.701 22.192 A 48.745 48.745 0 0 1 799.393 21.225 A 39.234 39.234 0 0 1 803.564 20.996 A 37.728 37.728 0 0 1 809.374 21.413 Q 812.396 21.885 814.818 22.892 A 15.995 15.995 0 0 1 819.116 25.488 Q 823.609 29.333 824.256 36.935 A 31.43 31.43 0 0 1 824.365 39.6 L 824.365 75.977 Z M 1096.24 75.977 L 1088.037 75.977 L 1085.742 68.457 L 1085.352 68.457 A 32.445 32.445 0 0 1 1082.66 71.475 Q 1081.212 72.896 1079.757 73.888 A 14.906 14.906 0 0 1 1077.49 75.171 A 18.039 18.039 0 0 1 1073.906 76.325 Q 1072.1 76.718 1069.984 76.865 A 38.2 38.2 0 0 1 1067.334 76.953 A 23.699 23.699 0 0 1 1062.276 76.446 Q 1057.839 75.476 1054.907 72.656 Q 1050.597 68.51 1050.445 61.046 A 27.013 27.013 0 0 1 1050.439 60.498 A 17.839 17.839 0 0 1 1051.172 55.242 A 13.506 13.506 0 0 1 1056.641 47.9 A 21.188 21.188 0 0 1 1061.803 45.39 Q 1066.848 43.671 1074.189 43.315 A 76.389 76.389 0 0 1 1075.537 43.262 L 1084.863 42.969 L 1084.863 40.088 A 17.701 17.701 0 0 0 1084.65 37.245 Q 1084.146 34.151 1082.446 32.349 Q 1080.49 30.273 1076.789 29.878 A 17.323 17.323 0 0 0 1074.951 29.785 A 25.916 25.916 0 0 0 1066.992 31.006 A 60.062 60.062 0 0 0 1059.668 33.887 L 1055.957 25.684 A 39.186 39.186 0 0 1 1063.964 22.593 A 44.645 44.645 0 0 1 1065.576 22.192 A 48.745 48.745 0 0 1 1071.268 21.225 A 39.234 39.234 0 0 1 1075.439 20.996 A 37.728 37.728 0 0 1 1081.249 21.413 Q 1084.271 21.885 1086.693 22.892 A 15.995 15.995 0 0 1 1090.991 25.488 Q 1095.484 29.333 1096.131 36.935 A 31.43 31.43 0 0 1 1096.24 39.6 L 1096.24 75.977 Z M 19.092 49.268 L 11.67 49.268 L 11.67 75.977 L 0 75.977 L 0 4.59 L 20.557 4.59 Q 28.929 4.59 34.672 6.731 A 20.606 20.606 0 0 1 40.601 10.059 A 17.591 17.591 0 0 1 46.615 20.024 A 27.331 27.331 0 0 1 47.266 26.172 A 27.24 27.24 0 0 1 46.4 33.242 A 18.971 18.971 0 0 1 39.941 43.311 A 24.141 24.141 0 0 1 31.872 47.537 Q 26.383 49.268 19.092 49.268 Z M 484.18 49.268 L 476.758 49.268 L 476.758 75.977 L 465.088 75.977 L 465.088 4.59 L 485.645 4.59 Q 494.017 4.59 499.76 6.731 A 20.606 20.606 0 0 1 505.688 10.059 A 17.591 17.591 0 0 1 511.703 20.024 A 27.331 27.331 0 0 1 512.354 26.172 A 27.24 27.24 0 0 1 511.488 33.242 A 18.971 18.971 0 0 1 505.029 43.311 A 24.141 24.141 0 0 1 496.96 47.537 Q 491.471 49.268 484.18 49.268 Z M 1123.73 0 L 1123.73 75.977 L 1112.256 75.977 L 1112.256 0 L 1123.73 0 Z M 1151.611 21.973 L 1151.611 75.977 L 1140.137 75.977 L 1140.137 21.973 L 1151.611 21.973 Z M 754.98 50.781 L 754.98 49.17 A 50.174 50.174 0 0 0 754.773 44.437 Q 754.15 37.891 751.66 34.668 Q 748.534 30.623 742.077 30.386 A 22.271 22.271 0 0 0 741.26 30.371 Q 735.205 30.371 731.934 35.278 A 16.969 16.969 0 0 0 729.846 39.852 Q 729.189 42.044 728.897 44.701 A 41.829 41.829 0 0 0 728.662 49.268 A 40.78 40.78 0 0 0 728.957 54.346 Q 729.272 56.85 729.924 58.9 A 15.815 15.815 0 0 0 731.836 62.964 Q 735.01 67.676 741.357 67.676 A 19.851 19.851 0 0 0 745.198 67.33 Q 747.358 66.903 749.009 65.95 A 9.466 9.466 0 0 0 751.66 63.696 A 12.054 12.054 0 0 0 753.556 60.241 Q 754.918 56.54 754.98 50.781 Z M 74.805 46.094 L 95.605 46.094 L 88.916 26.66 A 48.602 48.602 0 0 1 88.515 25.543 Q 87.876 23.703 86.936 20.659 A 304.344 304.344 0 0 1 86.89 20.508 Q 85.596 16.309 85.107 14.355 A 93.529 93.529 0 0 1 83.484 20.642 A 127.708 127.708 0 0 1 81.25 27.49 L 74.805 46.094 Z M 668.457 46.094 L 689.258 46.094 L 682.568 26.66 A 48.602 48.602 0 0 1 682.167 25.543 Q 681.528 23.703 680.589 20.659 A 304.344 304.344 0 0 1 680.542 20.508 Q 679.248 16.309 678.76 14.355 A 93.529 93.529 0 0 1 677.136 20.642 A 127.708 127.708 0 0 1 674.902 27.49 L 668.457 46.094 Z M 11.67 14.355 L 11.67 39.453 L 17.871 39.453 A 41.043 41.043 0 0 0 22.546 39.206 Q 28.036 38.574 31.055 36.328 A 9.975 9.975 0 0 0 34.791 30.585 Q 35.225 28.881 35.252 26.837 A 20.66 20.66 0 0 0 35.254 26.563 Q 35.254 20.41 31.494 17.383 Q 27.882 14.474 20.393 14.36 A 40.566 40.566 0 0 0 19.775 14.355 L 11.67 14.355 Z M 476.758 14.355 L 476.758 39.453 L 482.959 39.453 A 41.043 41.043 0 0 0 487.634 39.206 Q 493.124 38.574 496.143 36.328 A 9.975 9.975 0 0 0 499.879 30.585 Q 500.313 28.881 500.34 26.837 A 20.66 20.66 0 0 0 500.342 26.563 Q 500.342 20.41 496.582 17.383 Q 492.97 14.474 485.481 14.36 A 40.566 40.566 0 0 0 484.863 14.355 L 476.758 14.355 Z M 283.643 14.453 L 283.643 37.793 L 291.748 37.793 Q 299.188 37.793 302.888 35.273 A 9.099 9.099 0 0 0 303.564 34.766 A 9.713 9.713 0 0 0 306.823 29.414 Q 307.22 27.785 307.226 25.843 A 19.261 19.261 0 0 0 307.227 25.781 A 14.522 14.522 0 0 0 306.878 22.488 Q 306.052 18.944 303.271 17.09 A 13.063 13.063 0 0 0 299.912 15.535 Q 296.679 14.523 292.008 14.458 A 46.571 46.571 0 0 0 291.357 14.453 L 283.643 14.453 Z M 812.891 54.883 L 812.891 50.195 L 805.957 50.488 Q 797.852 50.781 794.165 53.198 A 7.861 7.861 0 0 0 790.587 58.959 A 11.836 11.836 0 0 0 790.479 60.596 A 9.73 9.73 0 0 0 790.732 62.887 A 6.42 6.42 0 0 0 792.627 66.187 A 6.723 6.723 0 0 0 795.015 67.573 Q 796.722 68.164 799.072 68.164 A 18.158 18.158 0 0 0 803.413 67.673 A 12.712 12.712 0 0 0 809.106 64.673 A 11.412 11.412 0 0 0 812.521 58.546 A 17.176 17.176 0 0 0 812.891 54.883 Z M 1084.766 54.883 L 1084.766 50.195 L 1077.832 50.488 Q 1069.727 50.781 1066.04 53.198 A 7.861 7.861 0 0 0 1062.462 58.959 A 11.836 11.836 0 0 0 1062.354 60.596 A 9.73 9.73 0 0 0 1062.607 62.887 A 6.42 6.42 0 0 0 1064.502 66.187 A 6.723 6.723 0 0 0 1066.89 67.573 Q 1068.597 68.164 1070.947 68.164 A 18.158 18.158 0 0 0 1075.288 67.673 A 12.712 12.712 0 0 0 1080.981 64.673 A 11.412 11.412 0 0 0 1084.396 58.546 A 17.176 17.176 0 0 0 1084.766 54.883 Z M 626.611 64.404 A 5.741 5.741 0 0 0 625.778 65.497 Q 624.756 67.228 624.756 69.873 A 12.833 12.833 0 0 0 624.762 70.277 Q 624.801 71.497 625.074 72.525 A 6.65 6.65 0 0 0 626.611 75.391 A 5.654 5.654 0 0 0 627.464 76.143 Q 628.482 76.874 629.854 77.177 A 9.86 9.86 0 0 0 631.982 77.393 Q 633.301 77.393 634.389 77.108 A 6.072 6.072 0 0 0 637.378 75.366 A 6.431 6.431 0 0 0 637.668 75.031 Q 639.258 73.061 639.258 69.873 Q 639.258 68.565 638.986 67.467 A 6.6 6.6 0 0 0 637.402 64.478 A 5.588 5.588 0 0 0 636.37 63.614 Q 635.388 62.975 634.091 62.703 A 10.266 10.266 0 0 0 631.982 62.5 A 12.148 12.148 0 0 0 631.336 62.517 Q 628.292 62.679 626.611 64.404 Z M 1139.634 5.8 A 9.016 9.016 0 0 0 1139.453 7.666 A 8.309 8.309 0 0 0 1139.643 9.494 A 5.58 5.58 0 0 0 1141.138 12.28 A 5.112 5.112 0 0 0 1141.995 12.97 Q 1143.546 13.965 1145.947 13.965 A 10.625 10.625 0 0 0 1146.163 13.963 Q 1147.196 13.942 1148.068 13.718 A 5.523 5.523 0 0 0 1150.659 12.28 A 5.552 5.552 0 0 0 1152.129 9.601 A 8.209 8.209 0 0 0 1152.344 7.666 Q 1152.344 6.404 1152.06 5.381 A 5.382 5.382 0 0 0 1150.659 2.93 A 5.201 5.201 0 0 0 1150.049 2.414 Q 1149.115 1.741 1147.86 1.463 A 8.865 8.865 0 0 0 1145.947 1.27 A 11.015 11.015 0 0 0 1145.362 1.285 Q 1142.661 1.428 1141.138 2.93 A 5.053 5.053 0 0 0 1140.476 3.731 Q 1139.884 4.621 1139.634 5.8 Z" vector-effect="non-scaling-stroke" fill="white"/></g></svg>
