<?xml version="1.0" standalone="no"?>
<!DOCTYPE svg PUBLIC "-//W3C//DTD SVG 20010904//EN"
 "http://www.w3.org/TR/2001/REC-SVG-20010904/DTD/svg10.dtd">
<svg version="1.0" xmlns="http://www.w3.org/2000/svg"
 width="614.000000pt" height="199.000000pt" viewBox="0 0 614.000000 199.000000"
 preserveAspectRatio="xMidYMid meet">
<metadata>
Created by potrace 1.16, written by Peter Selinger 2001-2019
</metadata>
<g transform="translate(0.000000,199.000000) scale(0.100000,-0.100000)"
fill="#000000" stroke="none">
<path d="M3634 1659 c-60 -17 -104 -81 -89 -128 6 -21 71 -61 97 -61 8 0 24
-7 36 -16 18 -12 20 -19 11 -35 -16 -30 -83 -23 -87 9 -3 19 -9 22 -53 22 -49
0 -49 0 -49 -33 0 -45 30 -74 85 -82 116 -18 215 42 215 131 0 40 -25 61 -96
83 -66 19 -77 35 -39 53 24 11 29 10 45 -10 14 -17 29 -22 64 -22 40 0 46 3
46 21 0 65 -87 97 -186 68z"/>
<path d="M3182 1533 c-18 -71 -37 -143 -41 -160 l-9 -33 53 0 53 0 17 65 c10
36 21 65 24 65 17 -1 30 -21 47 -72 l18 -58 59 0 c47 0 58 3 54 14 -3 8 -11
33 -17 55 -6 22 -17 47 -25 55 -20 20 -19 23 10 30 32 8 65 61 65 102 0 55
-22 64 -156 64 l-120 0 -32 -127z"/>
<path d="M3876 1555 c-29 -115 -31 -146 -15 -177 24 -44 125 -61 202 -34 74
27 94 60 131 215 l24 101 -52 0 -51 0 -27 -111 c-29 -120 -43 -141 -93 -136
-26 2 -30 7 -33 33 -2 17 6 68 17 112 12 44 21 85 21 91 0 6 -20 11 -49 11
l-49 0 -26 -105z"/>
<path d="M4247 1508 c-21 -84 -37 -156 -37 -160 0 -5 22 -8 49 -8 l49 0 14 58
14 57 69 6 c60 5 72 10 96 37 35 39 47 96 28 131 -14 25 -18 26 -130 29 l-115
3 -37 -153z"/>
<path d="M2108 1284 c-3 -3 -4 -14 -1 -25 5 -19 20 -19 588 -19 616 0 595 -1
595 41 0 10 -1172 13 -1182 3z"/>
<path d="M506 1192 c-3 -3 -6 -13 -6 -23 0 -9 -7 -19 -15 -23 -8 -3 -15 -15
-15 -26 0 -11 7 -20 15 -20 8 0 15 9 15 20 0 11 7 20 15 20 9 0 18 7 21 15 4
8 15 15 26 15 17 0 19 -5 15 -27 -5 -27 58 -169 103 -233 27 -37 18 -53 -10
-20 -16 18 -23 21 -32 12 -28 -28 -106 -2 -126 43 -15 32 -16 105 -2 105 6 0
10 7 10 16 0 11 6 14 23 8 12 -3 22 -7 22 -8 0 0 6 -11 13 -23 16 -31 15 -53
-2 -30 -13 16 -14 16 -20 -9 -9 -36 21 -69 54 -59 20 6 20 8 6 24 -9 10 -16
28 -16 40 0 29 -50 122 -61 115 -5 -3 -9 -12 -9 -20 0 -8 -7 -14 -15 -14 -8 0
-15 -9 -15 -20 0 -11 -7 -20 -15 -20 -12 0 -15 -14 -15 -69 0 -65 2 -70 23
-73 14 -2 23 -11 25 -25 3 -21 9 -23 57 -23 45 0 55 -3 60 -20 3 -11 11 -20
16 -20 5 0 9 -6 9 -14 0 -8 11 -24 25 -37 13 -13 25 -32 25 -42 0 -10 4 -16 9
-13 5 4 11 1 13 -6 2 -6 10 -8 17 -4 9 6 5 16 -13 41 -15 19 -26 37 -26 42 0
5 -13 23 -30 41 -36 40 -39 60 -5 38 14 -9 25 -12 25 -6 0 5 5 10 10 10 6 0
10 -6 10 -14 0 -11 77 -88 121 -121 22 -16 111 -54 147 -62 17 -5 31 -12 30
-16 -4 -11 32 -31 39 -23 4 3 0 7 -8 7 -8 1 4 5 26 8 22 3 51 4 65 2 25 -5 24
-5 -5 -12 -16 -4 4 -5 46 -2 64 5 92 1 175 -22 54 -16 101 -32 104 -36 3 -4
18 -11 33 -14 16 -4 31 -14 34 -21 3 -8 12 -14 20 -14 7 0 37 -23 64 -51 28
-27 49 -46 48 -42 -11 23 -124 211 -138 227 -12 14 -13 20 -4 23 14 5 -2 42
-24 56 -14 9 -18 37 -5 37 4 0 12 -3 18 -7 5 -5 1 -1 -8 9 -10 9 -18 29 -18
44 0 25 -1 26 -17 12 -10 -9 -25 -13 -33 -10 -12 4 -13 3 -2 -10 10 -13 6 -14
-40 -10 -46 4 -51 3 -40 -10 7 -9 22 -13 37 -10 16 3 25 0 25 -8 0 -8 9 -11
25 -8 14 3 25 1 25 -3 0 -5 -6 -9 -12 -9 -7 -1 -1 -7 13 -15 26 -14 45 -43 34
-53 -3 -3 -15 4 -28 15 -33 31 -106 69 -159 81 -25 7 -109 16 -186 22 -147 10
-228 24 -265 44 -109 58 -200 148 -190 186 3 11 12 20 19 20 8 0 14 5 14 10 0
15 -19 12 -36 -5 -21 -21 -27 -19 -46 15 -9 17 -13 30 -8 30 5 0 13 -7 18 -16
8 -14 10 -14 15 -1 4 10 -3 22 -19 31 -13 9 -24 23 -24 30 0 8 -7 17 -16 20
-8 3 -13 10 -10 14 5 9 -59 13 -68 4z"/>
<path d="M3896 1178 c-9 -12 -16 -26 -16 -29 0 -4 68 -8 150 -8 l150 -2 0 31
0 30 -134 0 c-128 0 -136 -1 -150 -22z"/>
<path d="M4417 1178 c-4 -13 -1 -26 6 -30 7 -4 68 -7 137 -6 l125 3 3 28 3 27
-134 0 c-131 0 -135 -1 -140 -22z"/>
<path d="M4820 1181 c-20 -39 -14 -41 124 -41 113 0 135 2 140 16 16 42 12 44
-124 44 -118 0 -130 -2 -140 -19z"/>
<path d="M3056 1088 c-3 -13 -6 -26 -6 -30 0 -5 128 -8 284 -8 301 0 296 -1
296 46 0 21 -178 20 -186 -1 -5 -12 -26 -15 -105 -15 -81 0 -99 3 -99 15 0 12
-17 15 -89 15 -84 0 -89 -1 -95 -22z"/>
<path d="M810 1016 c0 -16 -6 -26 -15 -26 -8 0 -15 -6 -15 -13 0 -19 45 -41
69 -34 18 4 19 2 10 -14 -11 -22 -56 -17 -76 9 -7 9 -16 12 -20 8 -10 -10 25
-36 47 -36 9 0 27 -11 40 -25 13 -14 30 -23 38 -20 7 2 23 -1 35 -9 32 -20
171 -31 208 -16 16 7 27 16 24 20 -3 5 3 6 12 4 10 -3 47 -8 83 -12 42 -5 64
-12 62 -20 -3 -19 16 -14 39 9 20 20 32 21 72 4 10 -4 17 -3 17 4 0 6 -10 11
-22 11 -17 0 -19 3 -10 9 10 6 8 10 -9 14 -13 3 -28 3 -33 -2 -11 -8 -135 -5
-143 3 -2 2 3 10 11 19 8 8 12 17 9 21 -3 3 -1 11 4 18 25 32 22 106 -4 90 -6
-4 -16 -23 -22 -42 l-11 -35 6 38 c4 32 2 37 -15 37 -37 0 -48 -10 -43 -40 2
-17 7 -28 11 -25 4 2 5 -9 3 -26 -2 -16 -9 -29 -14 -29 -5 0 -7 -4 -3 -9 3 -6
-4 -8 -15 -6 -16 3 -18 1 -11 -13 11 -22 -10 -44 -30 -31 -8 5 -39 11 -70 15
-42 5 -57 11 -65 27 -5 11 -17 22 -27 23 -30 4 -67 33 -79 62 -25 64 -48 82
-48 38z"/>
<path d="M3036 998 c-3 -13 -6 -26 -6 -30 0 -5 128 -8 285 -8 157 0 285 3 285
8 0 4 3 17 6 30 l6 22 -285 0 -285 0 -6 -22z"/>
<path d="M3725 904 c-8 -13 -15 -26 -15 -29 0 -3 115 -5 255 -5 236 0 255 1
255 18 0 37 -10 39 -247 39 -232 0 -233 0 -248 -23z"/>
<path d="M3673 818 c-6 -7 -13 -18 -16 -24 -4 -7 83 -10 284 -10 l289 -1 0 24
0 23 -274 0 c-207 0 -276 -3 -283 -12z"/>
<path d="M4826 724 c-3 -9 -6 -20 -6 -25 0 -5 234 -9 580 -9 562 0 580 1 590
19 5 11 10 22 10 25 0 3 -263 6 -584 6 -523 0 -584 -2 -590 -16z"/>
<path d="M1803 393 c-12 -2 -24 -11 -27 -19 -6 -16 9 -19 19 -4 3 6 9 10 13
10 11 0 32 -52 26 -62 -3 -5 0 -7 8 -6 7 2 14 -7 16 -18 3 -24 -28 -37 -64
-28 -26 7 -39 -19 -18 -36 10 -9 21 -10 41 -2 16 6 43 10 61 10 19 -1 38 5 43
13 12 18 3 71 -15 84 -8 6 -16 22 -18 35 -2 20 -9 25 -33 26 -16 1 -40 0 -52
-3z"/>
</g>
</svg>
